<html>
<head>
<meta charset="UTF-8">
<meta name="viewport" content="width=device-width, initial-scale=1.0"/>

<style>
.comment
{
    padding-left: 20px;
    margin-top: 4px;
    margin-right: 4px;
    margin-bottom: 4px;
    border: 2px #000 solid;
}
.submission
{
    border: 4px #00f solid;
    padding-left: 20px;
}
.hidden
{
    display: none;
}
</style>
</head>
<body><div class="submission" id="t3_6a5f0z">
    <p class="userinfo">
        <a href="https://www.reddit.com/u/jodorowsthesky">jodorowsthesky</a>
        <span class="score"> | 18 points</span>
        <span class="timestamp"> | May 09 2017 13:33:52</span>
    </p>
    <strong>[MOVIE] Absolutely Anything (2015) [1080p][x264][1.7GB]</strong>
    <p><p>.nz/#!hK4ABCTD!qvDa1h-2XGFMx51DBv3qbE0Sd1N_-ZFymYIXyIkikfA  </p>
<pre><code>Format                                   : MPEG-4
Format profile                           : Base Media / Version 2
Codec ID                                 : mp42 (isom/iso2/avc1/mp41)
File size                                : 1.69 GiB
Duration                                 : 1 h 25 min
Overall bit rate mode                    : Variable
Overall bit rate                         : 2 836 kb/s
Writing application                      : HandBrake 0.10.1 2015030800

Video
ID                                       : 1
Format                                   : AVC
Format/Info                              : Advanced Video Codec
Format profile                           : High@L4.1
Format settings, CABAC                   : Yes
Format settings, ReFrames                : 5 frames
Codec ID                                 : avc1
Codec ID/Info                            : Advanced Video Coding
Duration                                 : 1 h 25 min
Bit rate                                 : 2 670 kb/s
Width                                    : 1 920 pixels
Height                                   : 808 pixels
Display aspect ratio                     : 2.40:1
Frame rate mode                          : Variable
Frame rate                               : 23.976 (24000/1001) FPS
Minimum frame rate                       : 23.974 FPS
Maximum frame rate                       : 23.981 FPS
Color space                              : YUV
Chroma subsampling                       : 4:2:0
Bit depth                                : 8 bits
Scan type                                : Progressive
Bits/(Pixel*Frame)                       : 0.072
Stream size                              : 1.59 GiB (94%)
Writing library                          : x264 core 142 r2479 dd79a61
Encoding settings                        : cabac=1 / ref=5 / deblock=1:0:0 / analyse=0x3:0x113 / me=umh / subme=8 / psy=1 / psy_rd=1.00:0.00 / mixed_ref=1 / me_range=16 / chroma_me=1 / trellis=1 / 8x8dct=1 / cqm=0 / deadzone=21,11 / fast_pskip=1 / chroma_qp_offset=-2 / threads=18 / lookahead_threads=3 / sliced_threads=0 / nr=0 / decimate=1 / interlaced=0 / bluray_compat=0 / constrained_intra=0 / bframes=3 / b_pyramid=2 / b_adapt=2 / b_bias=0 / direct=3 / weightb=1 / open_gop=0 / weightp=2 / keyint=240 / keyint_min=24 / scenecut=40 / intra_refresh=0 / rc_lookahead=50 / rc=crf / mbtree=1 / crf=23.0 / qcomp=0.60 / qpmin=0 / qpmax=69 / qpstep=4 / vbv_maxrate=62500 / vbv_bufsize=78125 / crf_max=0.0 / nal_hrd=none / filler=0 / ip_ratio=1.40 / aq=1:1.00
Color range                              : Limited
Color primaries                          : BT.709
Transfer characteristics                 : BT.709
Matrix coefficients                      : BT.709
Menus                                    : 3

Audio
ID                                       : 2
Format                                   : AAC
Format/Info                              : Advanced Audio Codec
Format profile                           : LC
Codec ID                                 : 40
Duration                                 : 1 h 25 min
Bit rate mode                            : Variable
Bit rate                                 : 160 kb/s
Channel(s)                               : 2 channels
Channel(s)_Original                      : 6 channels
Channel positions                        : Front: L C R, Side: L R, LFE
Sampling rate                            : 48.0 kHz
Frame rate                               : 46.875 FPS (1024 spf)
Compression mode                         : Lossy
Stream size                              : 97.9 MiB (6%)
Title                                    : Surround / Surround
Language                                 : English
Default                                  : Yes
Alternate group                          : 1
Menus                                    : 3
</code></pre></p>
    <p class="toolbar">
        <a href="https://www.reddit.com/r/megalinks/comments/6a5f0z">permalink</a>
    </p>
</div>
<div class="comment" id="t1_dhbvih1">
    <p class="userinfo">
        <a
        class="toggle_hide_button"
        href="javascript:void(0)"
        onclick="toggle_collapse(this.parentElement.parentElement)">[-]
        </a>
        <a href="https://www.reddit.com/u/meglove87">meglove87</a>
        <span class="score"> | 3 points</span>
        <span class="timestamp"> | May 09 2017 14:33:45</span>
    </p>
    <div class="collapsible">
        <p>Thank you!</p>
        <p class="toolbar">
            <a href="https://www.reddit.com/r/megalinks/comments/6a5f0z/_/dhbvih1">permalink</a>
        </p>
        
    </div>
</div>

<div class="comment" id="t1_dhbspqo">
    <p class="userinfo">
        <a
        class="toggle_hide_button"
        href="javascript:void(0)"
        onclick="toggle_collapse(this.parentElement.parentElement)">[-]
        </a>
        <a href="https://www.reddit.com/u/boltrop">boltrop</a>
        <span class="score"> | 2 points</span>
        <span class="timestamp"> | May 09 2017 13:34:07</span>
    </p>
    <div class="collapsible">
        <h3><a href="https://images-na.ssl-images-amazon.com/images/M/MV5BMjMxNTQ1NDgyOF5BMl5BanBnXkFtZTgwMjMxNjU0NjE@._V1_.jpg">Absolutely Anything</a> (2015)</h3>
<p><strong>Genre</strong>: Comedy, Sci-Fi</p>
<p><strong>Rating</strong>:  6 (26241 votes)</p>
<p><strong>Certification</strong>: M</p>
<p><strong>Runtime</strong>: 85 min</p>
<hr>
<blockquote>
<p><strong>Director(s)</strong>: <a href="https://www.imdb.com/name/nm0001402/">Terry Jones</a></p>
<p><strong>Writer(s)</strong>: <a href="https://www.imdb.com/name/nm0001402/">Terry Jones</a>, <a href="https://www.imdb.com/name/nm0779170/">Gavin Scott</a></p>
<p><strong>Cast</strong>: <a href="https://www.imdb.com/name/nm0670408/">Simon Pegg</a>, <a href="https://www.imdb.com/name/nm0000295/">Kate Beckinsale</a>, <a href="https://www.imdb.com/name/nm0080276/">Sanjeev Bhaskar</a>, <a href="https://www.imdb.com/name/nm1443527/">Rob Riggle</a></p>
<p><strong>Plot</strong>: A group of eccentric aliens confer a human being with the power to do absolutely anything, as an experiment.</p>
</blockquote>
<hr>
<p>^This ^summary ^is ^taken ^from <a href="https://www.imdb.com/title/tt1727770/">^imdb.com</a> ^| ^For ^feedback ^or ^suggestions ^contact <a href="http://www.reddit.com/message/compose/?to=indigo6alpha">^/u/indigo6alpha</a></p>
        <p class="toolbar">
            <a href="https://www.reddit.com/r/megalinks/comments/6a5f0z/_/dhbspqo">permalink</a>
        </p>
        
    </div>
</div>

<div class="comment" id="t1_dhbspnj">
    <p class="userinfo">
        <a
        class="toggle_hide_button"
        href="javascript:void(0)"
        onclick="toggle_collapse(this.parentElement.parentElement)">[-]
        </a>
        <a href="https://www.reddit.com/u/SubZorro">SubZorro</a>
        <span class="score"> | 1 points</span>
        <span class="timestamp"> | May 09 2017 13:34:04</span>
    </p>
    <div class="collapsible">
        <h5>Subtitles for this movie:</h5>
<hr>
<blockquote>
<ul>
<li>
<p><strong>Absolutely Anything 2015 (v2)</strong> - <code>1 CD</code> - <a href="http://dl.opensubtitles.org/en/download/vrf-13b0bf6d/sub/6396977">Download Subtitle</a></p>
</li>
<li>
<p><strong>Absolutely.Anything.2015.720p.BluRay.x264-x0r</strong> - <code>1 CD</code> - <a href="http://dl.opensubtitles.org/en/download/vrf-6ea972b2/sub/6613989">Download Subtitle</a></p>
</li>
<li>
<p><strong>Absolutely Anything ENG</strong> - <code>1 CD</code> - <a href="http://dl.opensubtitles.org/en/download/vrf-bcdc1d0b/sub/6459677">Download Subtitle</a></p>
</li>
<li>
<p><strong>Absolutely.Anything.2015.720p.BluRay.x264-ROVERS</strong> - <code>1 CD</code> - <a href="http://dl.opensubtitles.org/en/download/vrf-97c23f4b/sub/6407689">Download Subtitle</a></p>
</li>
</ul>
</blockquote>
<hr>
<p>^This ^list ^of ^subtitles ^are ^taken ^from <a href="http://www.opensubtitles.org">^opensubtitles.org</a> ^| ^For ^feedback ^or ^suggestions ^contact <a href="http://www.reddit.com/message/compose/?to=indigo6alpha">^/u/indigo6alpha</a></p>
        <p class="toolbar">
            <a href="https://www.reddit.com/r/megalinks/comments/6a5f0z/_/dhbspnj">permalink</a>
        </p>
        
    </div>
</div>

<div class="comment" id="t1_dhfu99k">
    <p class="userinfo">
        <a
        class="toggle_hide_button"
        href="javascript:void(0)"
        onclick="toggle_collapse(this.parentElement.parentElement)">[-]
        </a>
        <a href="https://www.reddit.com/u/pacocan25">pacocan25</a>
        <span class="score"> | 1 points</span>
        <span class="timestamp"> | May 11 2017 21:34:10</span>
    </p>
    <div class="collapsible">
        <p>thnx, added to my download list:)</p>
        <p class="toolbar">
            <a href="https://www.reddit.com/r/megalinks/comments/6a5f0z/_/dhfu99k">permalink</a>
        </p>
        
    </div>
</div>
</body>

<script>
function toggle_collapse(comment_div)
{
    var button = comment_div.getElementsByClassName("toggle_hide_button")[0];
    var collapsible = comment_div.getElementsByClassName("collapsible")[0];
    if (collapsible.classList.contains("hidden"))
    {
        collapsible.classList.remove("hidden");
        button.innerText = "[-]";
    }
    else
    {
        collapsible.classList.add("hidden");
        button.innerText = "[+]";
    }
}
</script>
</html>
